Coordinates
version=1
nRows=12
nColumns=42
inDegrees=yes

Units are S.I. units (second, meters, Newtons, ...)
If the header above contains a line with 'inDegrees', this indicates whether rotational values are in degrees (yes) or radians (no).

endheader
time	pelvis_tilt	pelvis_list	pelvis_rotation	pelvis_tx	pelvis_ty	pelvis_tz	hip_flexion_r	hip_adduction_r	hip_rotation_r	knee_angle_r	knee_adduction_r	knee_angle_r_beta	ankle_angle_r	subtalar_angle_r	mtp_angle_r	hip_flexion_l	hip_adduction_l	hip_rotation_l	knee_angle_l	knee_adduction_l	knee_angle_l_beta	ankle_angle_l	subtalar_angle_l	mtp_angle_l	lumbar_extension	lumbar_bending	lumbar_rotation	arm_flex_r	arm_add_r	arm_rot_r	elbow_flex_r	pro_sup_r	wrist_flex_r	wrist_dev_r	arm_flex_l	arm_add_l	arm_rot_l	elbow_flex_l	pro_sup_l	wrist_flex_l	wrist_dev_l
      2.91000000	      7.96020780	      0.47012294	      0.52276870	      0.89018484	      0.89747700	     -0.22223922	     18.74137108	     -6.12838611	     -5.48021129	     76.43602602	      1.29668697	      1.33406032	     -0.33786435	    -15.94011375	     -7.50029159	     11.48479456	     -0.89081909	    -24.61042568	     37.72774470	     -5.44122948	      0.65847336	     23.30991647	     26.83018251	     -7.50029159	    -19.48864061	     -0.94708172	     -2.44271906	      4.16579226	     -8.39684598	    -14.89574719	     33.64747582	     90.00000001	      0.00000000	      0.00000000	     -3.09176156	     -8.07849288	    -27.00945411	     39.53800095	     90.00000001	      0.00000000	      0.00000000
      2.92000000	      7.96858677	      0.36800802	      0.60213179	      0.89632473	      0.89798881	     -0.22284472	     20.00901622	     -5.89885380	     -5.62761263	     75.91438249	      1.13839293	      1.32495592	      0.45607734	    -15.80724319	     -7.50028658	     10.82425693	     -0.95250047	    -24.42645384	     37.43009271	     -5.25611128	      0.65327836	     23.55880082	     26.76835013	     -7.50028658	    -19.67536728	     -0.80977318	     -2.62264396	      3.82208585	     -8.42934377	    -15.05715348	     33.45898836	     90.00000001	      0.00000000	      0.00000000	     -2.73407600	     -8.13054328	    -26.76860494	     39.75337508	     90.00000001	      0.00000000	      0.00000000
      2.93000000	      8.03299443	      0.28923622	      0.76674269	      0.90254096	      0.89858169	     -0.22352331	     21.05179275	     -5.73657874	     -5.96189028	     75.03232631	      0.93357595	      1.30956114	      1.38663435	    -15.29912667	     -7.50027740	     10.10042056	     -1.00438852	    -24.34014023	     37.10297704	     -5.14059306	      0.64756911	     24.05558066	     27.16935761	     -7.50027740	    -19.92624341	     -0.68144033	     -2.95198070	      3.70624279	     -8.36279433	    -15.48735117	     32.92272030	     90.00000001	      0.00000000	      0.00000000	     -2.44569242	     -8.32813573	    -26.15354984	     39.85451796	     90.00000001	      0.00000000	      0.00000000
      2.94000000	      8.11861327	      0.24978121	      0.93847496	      0.90880028	      0.89918657	     -0.22427248	     21.97333102	     -5.63000608	     -6.14401477	     73.89511662	      0.90083700	      1.28971309	      1.96999849	    -14.74780756	     -7.50027035	      9.31406794	     -0.98739292	    -24.25616878	     36.69878022	     -5.03277683	      0.64051455	     24.32780161	     27.44982601	     -7.50027035	    -20.17717517	     -0.59251513	     -3.24914512	      3.44345893	     -8.32027695	    -15.81727545	     32.53307328	     90.00000001	      0.00000000	      0.00000000	     -2.11619506	     -8.45246899	    -25.63621871	     40.00129113	     90.00000001	      0.00000000	      0.00000000
      2.95000000	      8.04653001	      0.19623799	      1.14007734	      0.91507260	      0.89954994	     -0.22510455	     22.95856776	     -5.53931564	     -6.22043990	     72.47621789	      1.03820542	      1.26494863	      2.21900668	    -14.18459204	     -7.50026642	      8.76401412	     -0.95651609	    -24.14687297	     36.37452608	     -5.00273318	      0.63485524	     24.40267846	     27.41149624	     -7.50026642	    -20.21735724	     -0.44333272	     -3.60583316	      3.07647079	     -8.30297836	    -15.94133487	     32.37937426	     90.00000001	      0.00000000	      0.00000000	     -1.84931083	     -8.52717241	    -25.37542759	     40.17786844	     90.00000001	      0.00000000	      0.00000000
      2.96000000	      8.17291078	      0.17852140	      1.38201041	      0.92154987	      0.90014633	     -0.22583899	     23.55160047	     -5.52367373	     -6.64351057	     70.75729786	      0.95975563	      1.23494782	      3.08988854	    -12.80572539	     -7.50025106	      7.90894648	     -1.03351797	    -24.62671028	     35.88959038	     -5.10451918	      0.62639152	     25.01754522	     29.19913236	     -7.50025106	    -20.50133245	     -0.36711195	     -3.93398315	      3.10045400	     -8.16673094	    -17.10813960	     31.42543745	     90.00000001	      0.00000000	      0.00000000	     -1.62389883	     -8.97826312	    -23.73256598	     40.04676369	     90.00000001	      0.00000000	      0.00000000
      2.97000000	      8.00985028	      0.28659069	      1.62920819	      0.92782457	      0.90014289	     -0.22666196	     24.49302569	     -5.68726338	     -6.69262459	     68.99095333	      1.21464840	      1.20411929	      3.17328794	    -12.34342282	     -7.50024816	      7.50568648	     -0.93892333	    -24.58905991	     35.73750444	     -4.93020217	      0.62373712	     24.96944022	     28.91511688	     -7.50024816	    -20.44987042	     -0.43699587	     -4.34806871	      2.71047618	     -8.10701789	    -17.14656558	     31.43865076	     90.00000001	      0.00000000	      0.00000000	     -1.33855357	     -9.00362510	    -23.59045796	     40.27879442	     90.00000001	      0.00000000	      0.00000000
      2.98000000	      8.23758901	      0.20315466	      1.86694172	      0.93463617	      0.90087477	     -0.22742724	     24.65082103	     -5.60900267	     -6.90947099	     66.66539072	      1.44581092	      1.16353057	      4.02594243	    -10.92585856	     -7.50023405	      6.38034499	     -1.04068918	    -24.96905695	     34.99159161	     -5.00573716	      0.61071848	     25.60522535	     30.73978263	     -7.50023405	    -20.80060135	     -0.23416563	     -4.64885209	      2.47410748	     -7.96143987	    -18.23382372	     30.98983441	     90.00000001	      0.00000000	      0.00000000	     -1.12649568	     -9.30159362	    -22.22290079	     40.16950755	     90.00000001	      0.00000000	      0.00000000
      2.99000000	      8.13576459	      0.20221030	      2.13671008	      0.94121891	      0.90095247	     -0.22815919	     25.21134515	     -5.63749128	     -6.95938765	     64.32953522	      1.81629179	      1.12276220	      4.19915084	    -10.41847280	     -7.50023015	      5.78269877	     -1.04614144	    -24.88422634	     34.58989902	     -4.86050420	      0.60370763	     25.68128744	     30.66120673	     -7.50023015	    -20.79336268	     -0.14927132	     -5.04165280	      2.02205701	     -7.93874114	    -18.38795273	     30.93973246	     90.00000001	      0.00000000	      0.00000000	     -0.92512139	     -9.34088271	    -21.98663277	     40.33472614	     90.00000001	      0.00000000	      0.00000000
      3.00000000	      8.10154912	      0.20377776	      2.39326595	      0.94796634	      0.90103248	     -0.22876085	     25.57412386	     -5.67798948	     -7.00415849	     61.78341282	      2.24105440	      1.07832398	      4.55693979	     -9.75436994	     -7.50022604	      5.05193595	     -1.11984900	    -24.90691844	     34.14500996	     -4.65162971	      0.59594285	     25.94569295	     30.99436823	     -7.50022604	    -20.85290715	     -0.08892291	     -5.37691855	      1.60357497	     -7.90697785	    -18.60927537	     30.84864801	     90.00000001	      0.00000000	      0.00000000	     -0.70613564	     -9.41529795	    -21.63929909	     40.41198678	     90.00000001	      0.00000000	      0.00000000
      3.01000000	      8.09471201	      0.24263444	      2.63113963	      0.95497733	      0.90089686	     -0.22933026	     25.84433048	     -5.79521354	     -7.28081741	     59.17404098	      2.49006632	      1.03278185	      5.71656376	     -7.78364740	     -7.50021546	      4.30783491	     -1.27989471	    -25.62049817	     33.76055974	     -4.66505139	      0.58923292	     26.58837056	     33.04765965	     -7.50021546	    -20.88510546	     -0.05588360	     -5.64699086	      1.17250770	     -7.71734101	    -19.58227378	     30.59622276	     90.00000001	      0.00000000	      0.00000000	     -0.47370544	     -9.72096777	    -20.41728466	     40.20191752	     90.00000001	      0.00000000	      0.00000000
      3.02000000	      7.79564940	      0.29741688	      2.90617029	      0.96177827	      0.90031949	     -0.22977336	     26.43371261	     -5.92577652	     -7.44621686	     56.50371915	      2.85664949	      0.98617594	      5.88269979	     -7.28134339	     -7.50021249	      3.99906416	     -1.25277816	    -25.54296509	     33.52049472	     -4.56337955	      0.58504300	     26.59640669	     32.77691059	     -7.50021249	    -20.63110890	     -0.09772283	     -5.96475040	      0.58926247	     -7.61377981	    -19.68776395	     30.55922625	     90.00000001	      0.00000000	      0.00000000	     -0.37142496	     -9.78452711	    -20.26004559	     40.36888431	     90.00000001	      0.00000000	      0.00000000
